<svg xmlns="http://www.w3.org/2000/svg" version="1.1" x="0px" y="0px" viewBox="0 0 100 125"
    enable-background="new 0 0 100 100" xml:space="preserve"><g><g><path d="M31.3,43.5c-1.8-1.8-1.8-5,0.1-6.8c1.8-1.8,5-1.8,6.8,0.1c1.8,1.8,1.8,5-0.1,6.8S33.1,45.3,31.3,43.5z M61.7,56.4    c-1.8,1.8-1.9,5-0.1,6.8c1.8,1.8,5,1.9,6.8,0.1c1.8-1.8,1.9-5,0.1-6.8C66.7,54.7,63.7,54.7,61.7,56.4z M94,51    c-1.8,2-2.1,4.9-0.8,7.2l1.2,2.1c1.8,3.2,0.4,7.3-3,8.8L89.2,70c-2.4,1-4,3.5-3.8,6.1l0.2,2.4c0.3,3.7-2.8,6.8-6.5,6.6L76.7,85    c-2.6-0.1-5.1,1.4-6.1,3.9l-0.9,2.3c-1.4,3.5-5.5,4.9-8.7,3.1l-2.1-1.2c-2.3-1.3-5.2-0.9-7.2,0.9l-1.8,1.6c-2.7,2.5-7.1,2.1-9.2-1    l-1.4-2c-1.5-2.2-4.3-3.1-6.8-2.3L30.1,91c-3.6,1.1-7.3-1.2-7.9-4.9l-0.4-2.4c-0.4-2.6-2.5-4.7-5.1-5.1l-2.4-0.4    c-3.7-0.6-6-4.2-5-7.8l0.7-2.3c0.7-2.6-0.2-5.3-2.4-6.8l-2-1.4c-3.1-2.1-3.6-6.4-1.1-9.2L6,49c1.8-2,2.1-4.9,0.8-7.2l-1.2-2.1    c-1.8-3.2-0.4-7.3,3-8.8l2.2-0.9c2.5-1,4-3.5,3.8-6.1l-0.2-2.4c-0.3-3.7,2.8-6.8,6.5-6.6l2.4,0.1c2.6,0.1,5.1-1.4,6.1-3.9l0.9-2.3    c1.4-3.5,5.5-4.9,8.7-3.1l2.1,1.2c2.3,1.3,5.2,0.9,7.2-0.9l1.8-1.6c2.7-2.5,7.1-2.1,9.2,1l1.4,2c1.5,2.2,4.3,3.1,6.8,2.3L69.9,9    c3.6-1.1,7.3,1.2,7.9,4.9l0.4,2.4c0.4,2.6,2.5,4.7,5.1,5.1l2.4,0.4c3.7,0.6,6,4.2,5,7.8l-0.7,2.3c-0.7,2.6,0.2,5.3,2.4,6.8l2,1.4    c3.1,2.1,3.6,6.4,1.1,9.2L94,51z M34.6,51.6c6.3,0.1,11.6-5.1,11.6-11.4c0.1-6.3-5.1-11.6-11.4-11.6c-6.3-0.1-11.6,5.1-11.6,11.4    C23.1,46.3,28.3,51.6,34.6,51.6z M37.7,69.9l29.8-35.5c1.2-1.4,1-3.6-0.4-4.8l0,0c-1.4-1.2-3.6-1-4.8,0.4L32.5,65.6    c-1.2,1.4-1,3.6,0.4,4.8l0,0C34.3,71.5,36.5,71.4,37.7,69.9z M76.8,60c0.1-6.3-5.1-11.6-11.4-11.6c-6.3-0.1-11.6,5.1-11.6,11.4    c-0.1,6.3,5.1,11.6,11.4,11.6C71.5,71.5,76.7,66.3,76.8,60z"/></g></g>
</svg>