<svg xmlns="http://www.w3.org/2000/svg" version="1.1" x="0px" y="0px" viewBox="0 0 100 125"
    style="enable-background:new 0 0 100 100;" xml:space="preserve"><style type="text/css">
	.st0{fill-rule:evenodd;clip-rule:evenodd;}
</style>
    <path class="st0"
        d="M49.999321,19.5050755C45.2123566,12.987587,37.4936218,8.7533617,28.7932968,8.7533617  c-14.511138,0-26.2932968,11.7831278-26.2932968,26.2932968c0,10.7926178,7.3521185,22.1579475,16.455122,31.7644386  C31.949192,80.5209503,48.1953163,90.7274933,48.1953163,90.7274933c1.1026611,0.6921921,2.5067978,0.6921921,3.6093674,0  c0,0,16.2453499-10.2057571,29.2401924-23.9163895C90.1478806,57.2059669,97.5,45.8396721,97.5,35.0466614  c0-14.511137-11.7831268-26.2932968-26.2932968-26.2932968c-8.6993561,0-16.418087,4.2342243-21.2060242,10.7517138  L49.999321,19.5050755z" />
   </svg>