<svg xmlns="http://www.w3.org/2000/svg" version="1.1" x="0px" y="0px" viewBox="0 0 100 125"
    style="enable-background:new 0 0 100 100;" xml:space="preserve"><path d="M50,76.39c-0.84,0-1.67-0.27-2.39-0.8c-0.48-0.36-1.07-0.79-1.76-1.29C37.82,68.46,19,54.77,19,41.61c0-9.92,8.07-18,18-18  c4.92,0,9.62,2.04,13,5.55c3.38-3.51,8.08-5.55,13-5.55c9.93,0,18,8.08,18,18c0,13.16-18.82,26.85-26.85,32.7  c-0.69,0.5-1.28,0.93-1.76,1.29C51.67,76.13,50.84,76.39,50,76.39z M37,27.61c-7.72,0-14,6.28-14,14c0,11.13,18.31,24.45,25.2,29.46  c0.7,0.51,1.31,0.96,1.8,1.32c0.47-0.37,1.08-0.81,1.79-1.32C58.69,66.05,77,52.73,77,41.61c0-7.72-6.28-14-14-14  c-4.49,0-8.74,2.18-11.38,5.84c-0.38,0.52-0.98,0.83-1.62,0.83s-1.25-0.31-1.62-0.83C45.74,29.79,41.49,27.61,37,27.61z"/>
</svg>