<svg xmlns="http://www.w3.org/2000/svg" version="1.1" x="0px" y="0px" viewBox="0 0 100 125">
    <g transform="translate(0,-952.36218)">
        <path
            d="m 49.985618,969.36219 c -2.36793,0 -4.71704,0.3601 -6.00175,1.0471 0.10409,2.732 0.98178,4.5551 2.0631,5.5529 1.15335,1.0643 2.68365,1.5231 4.06369,1.5231 1.17477,0 2.67567,-0.4436 3.84487,-1.5231 1.09619,-1.012 1.93286,-2.8225 2.03184,-5.5529 -1.2847,-0.687 -3.63382,-1.0471 -6.00175,-1.0471 z m -7.8773,2.5701 c -5.18953,1.4609 -11.20461,2.5041 -15.16067,4.5376 -9.06422,15.88589 -10.37672,35.78431 -9.84662,53.81541 l 7.84604,0 c 0.34,-11.2242 1.85839,-24.4801 5.90797,-34.23762 0.0495,12.46462 0.0497,22.43472 0.12504,31.19152 l 18.00525,0 0,-47.81831 c -1.47572,-0.2032 -3.015,-0.7977 -4.2825,-1.9672 -1.29299,-1.1934 -2.26732,-2.7788 -2.59451,-5.5214 z m 15.7546,0 c -0.31537,2.7159 -1.2733,4.3301 -2.56325,5.5213 -1.318,1.2167 -2.86974,1.8258 -4.31376,1.999 l 0,47.78651 18.00525,0 c -0.0537,-11.5655 0.0242,-22.5481 0.12504,-31.19142 4.04997,9.75752 5.59301,23.01322 5.93923,34.23762 l 7.84604,0 c 0.52557,-18.0311 -0.81366,-37.92952 -9.87788,-53.81541 -4.2072,-2.1774 -10.27284,-3.474 -15.16062,-4.5376 z m -20.88109,41.09151 2.00058,0 0,9.1385 -2.00058,0 z m 24.007,0 2.00058,0 0,9.1385 -2.00058,0 z m -30.00875,16.2461 c 0,2.0226 1.00029,3.0462 3.00087,3.0462 5.01722,-0.072 10.00624,-0.1225 15.00438,-0.127 l 0,-2.9192 z m 20.00583,0 0,2.9192 c 4.99714,0 10.00317,0.055 15.00438,0.127 2.00058,0 3.00087,-1.0236 3.00087,-3.0462 z m -33.82236,3.0462 c 0.0377,1.0212 0.0777,2.0397 0.12503,3.0461 l 7.56471,0 c 0,-0.9795 0.0128,-2.0201 0.0312,-3.0461 z m 57.9544,0 c 0.0188,1.0261 0.0312,2.0666 0.0312,3.0461 l 7.56471,0 c 0.0473,-1.0064 0.0874,-2.0248 0.12503,-3.0461 z"
            style="color:#000000;enable-background:accumulate;" fill="#000000" stroke="none"
            marker="none" visibility="visible" display="inline" overflow="visible" />
    </g>
</svg>