<svg xmlns="http://www.w3.org/2000/svg" viewBox="0 0 64 80" fill="none" x="0px" y="0px">
    <path fill-rule="evenodd" clip-rule="evenodd"
        d="M20 24C17.2386 24 15 26.2386 15 29C15 31.7614 17.2386 34 20 34C22.7614 34 25 31.7614 25 29C25 26.2386 22.7614 24 20 24ZM19 29C19 28.4477 19.4477 28 20 28C20.5523 28 21 28.4477 21 29C21 29.5523 20.5523 30 20 30C19.4477 30 19 29.5523 19 29Z"
        fill="black" />
    <path fill-rule="evenodd" clip-rule="evenodd"
        d="M32 24C29.2386 24 27 26.2386 27 29C27 31.7614 29.2386 34 32 34C34.7614 34 37 31.7614 37 29C37 26.2386 34.7614 24 32 24ZM31 29C31 28.4477 31.4477 28 32 28C32.5523 28 33 28.4477 33 29C33 29.5523 32.5523 30 32 30C31.4477 30 31 29.5523 31 29Z"
        fill="black" />
    <path fill-rule="evenodd" clip-rule="evenodd"
        d="M44 24C41.2386 24 39 26.2386 39 29C39 31.7614 41.2386 34 44 34C46.7614 34 49 31.7614 49 29C49 26.2386 46.7614 24 44 24ZM43 29C43 28.4477 43.4477 28 44 28C44.5523 28 45 28.4477 45 29C45 29.5523 44.5523 30 44 30C43.4477 30 43 29.5523 43 29Z"
        fill="black" />
    <path fill-rule="evenodd" clip-rule="evenodd"
        d="M18.2495 2C10.3744 2 3.47928 7.75832 2.689 15.7408C1.76765 25.0472 1.77105 32.9039 2.69493 42.2444C3.32487 48.6132 7.84242 53.5749 13.6387 55.3208L12.1305 59.2895C11.8469 60.0355 12.0341 60.8787 12.6066 61.4347C13.179 61.9907 14.0273 62.1532 14.7647 61.848L28.8975 56H45.7128C53.554 56 60.4326 50.2914 61.2599 42.3452C62.2437 32.8962 62.2463 24.9898 61.27 15.6319C60.4418 7.69355 53.564 2 45.7345 2H18.2495ZM6.66954 16.1349C7.24295 10.3429 12.2829 6 18.2495 6H45.7345C51.6693 6 56.6915 10.2954 57.2916 16.047C58.2389 25.1266 58.2367 32.7551 57.2814 41.931C56.6814 47.694 51.6549 52 45.7128 52H28.5C28.2376 52 27.9778 52.0516 27.7353 52.152L17.5149 56.3811L18.2001 54.5779C18.4165 54.0085 18.3616 53.3714 18.051 52.8474C17.7403 52.3234 17.2077 51.9696 16.6043 51.8862C11.3758 51.1639 7.19516 47.1044 6.6755 41.8507C5.77737 32.7704 5.77429 25.1776 6.66954 16.1349Z"
        fill="black" />
</svg>