<svg xmlns="http://www.w3.org/2000/svg" viewBox="0 0 64 80" fill="none" x="0px" y="0px">
    <path fill-rule="evenodd" clip-rule="evenodd"
        d="M2.689 15.7408C3.47928 7.75832 10.3744 2 18.2495 2H45.7345C53.564 2 60.4418 7.69355 61.27 15.6319C62.2463 24.9898 62.2437 32.8962 61.2599 42.3452C60.4326 50.2914 53.554 56 45.7128 56H28.8975L14.7647 61.848C14.0273 62.1532 13.179 61.9907 12.6066 61.4347C12.0341 60.8787 11.8469 60.0355 12.1305 59.2895L13.6387 55.3208C7.84242 53.5749 3.32487 48.6132 2.69493 42.2444C1.77105 32.9039 1.76765 25.0472 2.689 15.7408ZM18 24C15.2386 24 13 26.2386 13 29C13 31.7614 15.2386 34 18 34C20.7614 34 23 31.7614 23 29C23 26.2386 20.7614 24 18 24ZM32 24C29.2386 24 27 26.2386 27 29C27 31.7614 29.2386 34 32 34C34.7614 34 37 31.7614 37 29C37 26.2386 34.7614 24 32 24ZM41 29C41 26.2386 43.2386 24 46 24C48.7614 24 51 26.2386 51 29C51 31.7614 48.7614 34 46 34C43.2386 34 41 31.7614 41 29Z"
        fill="black" />
</svg>