<svg xmlns="http://www.w3.org/2000/svg" xml:space="preserve" version="1.1"
    style="shape-rendering:geometricPrecision;text-rendering:geometricPrecision;image-rendering:optimizeQuality;"
    viewBox="0 0 2.543 3.3987499999999997" x="0px" y="0px" fill-rule="evenodd" clip-rule="evenodd"><defs><style type="text/css">
   
    .fil0 {fill:black}

  </style></defs>
    <g><path class="fil0" d="M2.011 0.505c-0.146,0 -0.279,0.059 -0.376,0.155 -0.096,0.096 -0.155,0.229 -0.155,0.376 0,0.147 0.059,0.28 0.155,0.376 0.097,0.096 0.23,0.156 0.376,0.156 0.147,0 0.28,-0.06 0.376,-0.156 0.096,-0.096 0.156,-0.229 0.156,-0.376 0,-0.147 -0.06,-0.28 -0.156,-0.376 -0.096,-0.096 -0.229,-0.155 -0.376,-0.155zm-0.645 -0.218c-0.009,-0.02 -0.022,-0.039 -0.037,-0.054 -0.033,-0.033 -0.078,-0.053 -0.128,-0.053 -0.05,0 -0.095,0.02 -0.127,0.053 -0.016,0.015 -0.028,0.034 -0.037,0.054 0.053,-0.01 0.108,-0.016 0.164,-0.016 0.056,0 0.111,0.006 0.165,0.016zm-0.525 0.064c0.002,-0.096 0.042,-0.182 0.105,-0.245 0.066,-0.066 0.156,-0.106 0.255,-0.106 0.1,0 0.19,0.04 0.255,0.106 0.063,0.063 0.103,0.149 0.105,0.244 0.069,0.032 0.133,0.073 0.191,0.121 -0.068,0.031 -0.128,0.074 -0.18,0.126 -0.113,0.112 -0.182,0.268 -0.182,0.439 0,0.172 0.069,0.327 0.182,0.44 0.112,0.112 0.268,0.182 0.439,0.182 0.035,0 0.068,-0.003 0.101,-0.008 0.012,0.07 0.026,0.139 0.042,0.206 0.012,0.048 0.025,0.094 0.039,0.138l-1.983 0c0.036,-0.114 0.065,-0.245 0.086,-0.376 0.029,-0.177 0.044,-0.353 0.044,-0.486 0,-0.236 0.097,-0.452 0.253,-0.608 0.071,-0.071 0.155,-0.13 0.248,-0.173zm0.652 2.118l-0.583 0c0.009,0.063 0.039,0.12 0.083,0.163 0.053,0.054 0.127,0.087 0.208,0.087 0.082,0 0.155,-0.033 0.209,-0.087 0.043,-0.043 0.073,-0.1 0.083,-0.163zm0.762 -0.385l-2.108 0c-0.04,0 -0.077,0.017 -0.104,0.043 -0.026,0.027 -0.043,0.064 -0.043,0.104 0,0.041 0.017,0.078 0.043,0.104 0.027,0.027 0.064,0.044 0.104,0.044l0.669 0 0.77 0 0.669 0c0.041,0 0.077,-0.017 0.104,-0.044 0.027,-0.026 0.043,-0.063 0.043,-0.104 0,-0.04 -0.016,-0.077 -0.043,-0.103 -0.027,-0.027 -0.063,-0.044 -0.104,-0.044zm-1.51 -1c0,0.025 -0.02,0.045 -0.045,0.045 -0.025,0 -0.045,-0.02 -0.045,-0.045 0,-0.137 0.056,-0.261 0.146,-0.351 0.091,-0.091 0.215,-0.147 0.352,-0.147 0.025,0 0.045,0.02 0.045,0.045 0,0.025 -0.02,0.045 -0.045,0.045 -0.112,0 -0.214,0.046 -0.288,0.12 -0.074,0.074 -0.12,0.176 -0.12,0.288z"/></g>
    </svg>