<svg xmlns="http://www.w3.org/2000/svg" version="1.1" x="0px" y="0px" viewBox="0 0 70 87.5"
    style="enable-background:new 0 0 70 70;" xml:space="preserve"><g><path d="M28.6,19.6v-3.3h-6.9l0.4,6h3.6C27.3,22.3,28.6,21.1,28.6,19.6z"/><rect
    x="40.4" y="11" width="8" height="3.7" /><rect x="31.8" y="11" width="6.5" height="3.7" /><path
    d="M41.5,19.6c0,1.5,1.3,2.7,2.9,2.7h3.5l0.4-6h-6.8V19.6z" /><path
    d="M39.7,19.6v-3.3h-9.4v3.3c0,2.7-2.2,4.9-4.9,4.9h-3.2L24.6,59h9.3V33.4c0-0.6,0.5-1.1,1.1-1.1s1.1,0.5,1.1,1.1V59h9.3   l2.3-34.5h-3.2C41.9,24.5,39.7,22.3,39.7,19.6z" /><rect
    x="21.6" y="11" width="8" height="3.7" /></g>
</svg>