<svg xmlns="http://www.w3.org/2000/svg" xml:space="preserve" version="1.1"
    style="shape-rendering:geometricPrecision;text-rendering:geometricPrecision;image-rendering:optimizeQuality;"
    viewBox="0 0 10.708 10.6375" x="0px" y="0px" fill-rule="evenodd" clip-rule="evenodd"><defs><style type="text/css">
   
    .fil0 {fill:black}
   
  </style></defs>
    <g><path class="fil0" d="M2.303 3.289l0 5.221 6.103 0 0 -5.221 1.875 0.392 0.427 -2.288 -3.413 -1.351c-0.055,0.438 -0.259,0.833 -0.56,1.131 -0.317,0.315 -0.742,0.523 -1.213,0.564l0 1.283c0,0.093 -0.075,0.168 -0.168,0.168 -0.092,0 -0.167,-0.075 -0.167,-0.168l0 -1.283c-0.471,-0.041 -0.896,-0.249 -1.214,-0.564 -0.3,-0.298 -0.504,-0.693 -0.56,-1.131l-3.413 1.351 0.428 2.288 1.875 -0.392zm1.906 -2.353c0.294,0.292 0.699,0.473 1.145,0.473 0.446,0 0.852,-0.181 1.145,-0.473 0.249,-0.247 0.418,-0.573 0.463,-0.936 -0.534,0.082 -1.07,0.124 -1.608,0.124 -0.537,0.001 -1.074,-0.04 -1.608,-0.123 0.046,0.363 0.215,0.689 0.463,0.935z"/></g>
    </svg>