<svg xmlns="http://www.w3.org/2000/svg" viewBox="0 0 32 40" version="1.1" xml:space="preserve"
    style="" x="0px" y="0px" fill-rule="evenodd" clip-rule="evenodd" stroke-linejoin="round"
    stroke-miterlimit="2"><g transform="matrix(1,0,0,1,-336,0)"><path d="M341.733,26.932C344.417,29.454 348.03,31 352,31C355.97,31 359.583,29.454 362.267,26.932C362.263,26.925 362.26,26.918 362.257,26.911C361.852,26.014 360.873,25.098 359.604,24.29C357.554,22.984 354.74,22 352,22C349.26,22 346.446,22.984 344.396,24.29C343.127,25.098 342.148,26.014 341.743,26.911C341.74,26.918 341.737,26.925 341.733,26.932ZM340.308,25.393C340.942,24.432 341.989,23.452 343.321,22.603C345.66,21.113 348.874,20 352,20C355.126,20 358.34,21.113 360.679,22.603C362.011,23.452 363.058,24.432 363.692,25.393C365.761,22.821 367,19.554 367,16C367,7.721 360.279,1 352,1C343.721,1 337,7.721 337,16C337,19.554 338.239,22.821 340.308,25.393ZM352,6C348.689,6 346,8.689 346,12C346,15.311 348.689,18 352,18C355.311,18 358,15.311 358,12C358,8.689 355.311,6 352,6ZM352,8C354.208,8 356,9.792 356,12C356,14.208 354.208,16 352,16C349.792,16 348,14.208 348,12C348,9.792 349.792,8 352,8Z"/></g>
</svg>