<svg xmlns="http://www.w3.org/2000/svg" viewBox="0 0 32 40" version="1.1" xml:space="preserve"
    style="" x="0px" y="0px" fill-rule="evenodd" clip-rule="evenodd" stroke-linejoin="round"
    stroke-miterlimit="2"><g transform="matrix(1,0,0,1,-432,-144)"><path d="M448,145C439.721,145 433,151.721 433,160C433,168.279 439.721,175 448,175C456.279,175 463,168.279 463,160C463,151.721 456.279,145 448,145ZM457.377,169C455.011,166.535 451.683,165 448,165C444.317,165 440.989,166.535 438.623,169C440.989,171.465 444.316,173 448,173C451.684,173 455.011,171.465 457.377,169ZM458.655,167.446C460.133,165.337 461,162.769 461,160C461,152.825 455.175,147 448,147C440.825,147 435,152.825 435,160C435,162.769 435.867,165.337 437.345,167.446C440.064,164.701 443.835,163 448,163C452.165,163 455.936,164.701 458.655,167.446ZM448,149C444.689,149 442,151.689 442,155C442,158.311 444.689,161 448,161C451.311,161 454,158.311 454,155C454,151.689 451.311,149 448,149ZM448,151C450.208,151 452,152.792 452,155C452,157.208 450.208,159 448,159C445.792,159 444,157.208 444,155C444,152.792 445.792,151 448,151Z"/></g>
</svg>